<mxfile host="app.diagrams.net" modified="2022-10-12T13:06:21.082Z" agent="5.0 (Macintosh; Intel Mac OS X 10_15_7) AppleWebKit/537.36 (KHTML, like Gecko) Chrome/105.0.0.0 Safari/537.36" etag="_3hUMvIxIR7sPgWRc4fi" version="20.4.0" type="github">
  <diagram id="dcgTzLkX5Ieo8_qvb2Ec" name="Page-1">
    <mxGraphModel dx="1426" dy="794" grid="1" gridSize="10" guides="1" tooltips="1" connect="1" arrows="1" fold="1" page="1" pageScale="1" pageWidth="827" pageHeight="1169" math="0" shadow="0">
      <root>
        <mxCell id="0" />
        <mxCell id="1" parent="0" />
        <mxCell id="1T_duIyjyi4lHh5Tt4Vf-7" style="edgeStyle=orthogonalEdgeStyle;rounded=0;orthogonalLoop=1;jettySize=auto;html=1;exitX=0.5;exitY=1;exitDx=0;exitDy=0;entryX=0.5;entryY=0;entryDx=0;entryDy=0;fontSize=19;" parent="1" source="1T_duIyjyi4lHh5Tt4Vf-1" target="1T_duIyjyi4lHh5Tt4Vf-6" edge="1">
          <mxGeometry relative="1" as="geometry" />
        </mxCell>
        <mxCell id="1T_duIyjyi4lHh5Tt4Vf-1" value="projects/web-legacy/src/components/championship-rules/index.ts&lt;br&gt;&lt;br&gt;&lt;pre style=&quot;background-color:#212121;color:#eeffff;font-family:&#39;Menlo&#39;,monospace;font-size:9.0pt;&quot;&gt;&lt;span style=&quot;color:#c792ea;font-style:italic;&quot;&gt;import &lt;/span&gt;angular &lt;span style=&quot;color:#c792ea;font-style:italic;&quot;&gt;from &lt;/span&gt;&lt;span style=&quot;color:#c3e88d;&quot;&gt;&#39;angular&#39;&lt;/span&gt;&lt;span style=&quot;color:#89ddff;&quot;&gt;;&lt;br&gt;&lt;/span&gt;&lt;span style=&quot;color:#c792ea;font-style:italic;&quot;&gt;import &lt;/span&gt;ChampionshipRules &lt;span style=&quot;color:#c792ea;font-style:italic;&quot;&gt;from &lt;/span&gt;&lt;span style=&quot;color:#c3e88d;&quot;&gt;&#39;@faceit/web/src/views/ChampionshipRules&#39;&lt;/span&gt;&lt;span style=&quot;color:#89ddff;&quot;&gt;;&lt;br&gt;&lt;/span&gt;&lt;span style=&quot;color:#c792ea;font-style:italic;&quot;&gt;import &lt;/span&gt;&lt;span style=&quot;color:#ffcb6b;font-style:italic;&quot;&gt;renderReact &lt;/span&gt;&lt;span style=&quot;color:#c792ea;font-style:italic;&quot;&gt;from &lt;/span&gt;&lt;span style=&quot;color:#c3e88d;&quot;&gt;&#39;../../helpers/renderReact&#39;&lt;/span&gt;&lt;span style=&quot;color:#89ddff;&quot;&gt;;&lt;/span&gt;&lt;/pre&gt;&lt;br&gt;&lt;div style=&quot;&quot;&gt;&lt;pre style=&quot;background-color:#212121;color:#eeffff;font-family:&#39;Menlo&#39;,monospace;font-size:9.0pt;&quot;&gt;angular&lt;span style=&quot;color:#89ddff;&quot;&gt;.&lt;/span&gt;&lt;span style=&quot;color:#82aaff;&quot;&gt;module&lt;/span&gt;&lt;span style=&quot;color:#89ddff;&quot;&gt;(&lt;/span&gt;&lt;span style=&quot;color:#c3e88d;&quot;&gt;&#39;faceit.components.championshipRules&#39;&lt;/span&gt;&lt;span style=&quot;color:#89ddff;&quot;&gt;, []).&lt;/span&gt;&lt;span style=&quot;color:#82aaff;&quot;&gt;component&lt;/span&gt;&lt;span style=&quot;color:#89ddff;&quot;&gt;(&lt;br&gt;&lt;/span&gt;&lt;span style=&quot;color:#89ddff;&quot;&gt;  &lt;/span&gt;&lt;span style=&quot;color:#c3e88d;&quot;&gt;&#39;championshipRules&#39;&lt;/span&gt;&lt;span style=&quot;color:#89ddff;&quot;&gt;,&lt;br&gt;&lt;/span&gt;&lt;span style=&quot;color:#89ddff;&quot;&gt;  &lt;/span&gt;&lt;span style=&quot;color:#ffcb6b;font-style:italic;&quot;&gt;renderReact&lt;/span&gt;&lt;span style=&quot;color:#89ddff;&quot;&gt;(&lt;/span&gt;ChampionshipRules&lt;span style=&quot;color:#89ddff;&quot;&gt;, [], {&lt;/span&gt;&lt;/pre&gt;&lt;/div&gt;" style="rounded=1;whiteSpace=wrap;html=1;align=left;" parent="1" vertex="1">
          <mxGeometry x="240" y="281" width="515" height="199" as="geometry" />
        </mxCell>
        <mxCell id="1T_duIyjyi4lHh5Tt4Vf-2" value="The Rules tab Angular code" style="rounded=1;whiteSpace=wrap;html=1;fillColor=#fff2cc;strokeColor=#d6b656;" parent="1" vertex="1">
          <mxGeometry x="80" y="10" width="220" height="90" as="geometry" />
        </mxCell>
        <mxCell id="1T_duIyjyi4lHh5Tt4Vf-4" value="" style="edgeStyle=orthogonalEdgeStyle;rounded=0;orthogonalLoop=1;jettySize=auto;html=1;" parent="1" source="1T_duIyjyi4lHh5Tt4Vf-3" target="1T_duIyjyi4lHh5Tt4Vf-1" edge="1">
          <mxGeometry relative="1" as="geometry" />
        </mxCell>
        <mxCell id="1T_duIyjyi4lHh5Tt4Vf-3" value="projects/web-legacy/src/pages/championship/rules/championship-rules-view.html&lt;br&gt;&lt;br&gt;&lt;pre style=&quot;background-color:#212121;color:#eeffff;font-family:&#39;Menlo&#39;,monospace;font-size:9.0pt;&quot;&gt;&lt;span style=&quot;color:#89ddff;&quot;&gt;&amp;lt;&lt;/span&gt;&lt;span style=&quot;color:#808080;&quot;&gt;championship-rules&lt;br&gt;&lt;/span&gt;&lt;span style=&quot;color:#808080;&quot;&gt;  &lt;/span&gt;&lt;span style=&quot;color:#ffcb6b;font-style:italic;&quot;&gt;ng-if&lt;/span&gt;&lt;span style=&quot;color:#c3e88d;&quot;&gt;=&quot;&lt;/span&gt;&lt;span style=&quot;color:#808080;&quot;&gt;vm.currentChampionship.isDesignLiftEnabled === false&lt;/span&gt;&lt;span style=&quot;color:#c3e88d;&quot;&gt;&quot;&lt;br&gt;&lt;/span&gt;&lt;span style=&quot;color:#89ddff;&quot;&gt;&amp;gt;&amp;lt;/&lt;/span&gt;&lt;span style=&quot;color:#808080;&quot;&gt;championship-rules&lt;/span&gt;&lt;span style=&quot;color:#89ddff;&quot;&gt;&amp;gt;&lt;/span&gt;&lt;/pre&gt;" style="rounded=1;whiteSpace=wrap;html=1;align=left;" parent="1" vertex="1">
          <mxGeometry x="200" y="150" width="450" height="100" as="geometry" />
        </mxCell>
        <mxCell id="1T_duIyjyi4lHh5Tt4Vf-5" value="&lt;font style=&quot;font-size: 19px;&quot;&gt;&lt;b&gt;View&lt;/b&gt;&lt;/font&gt;" style="rounded=1;whiteSpace=wrap;html=1;" parent="1" vertex="1">
          <mxGeometry x="80" y="150" width="120" height="100" as="geometry" />
        </mxCell>
        <mxCell id="1T_duIyjyi4lHh5Tt4Vf-6" value="projects/web/src/views/ChampionshipRules/index.tsx&lt;br&gt;&lt;br&gt;&lt;pre style=&quot;background-color:#212121;color:#eeffff;font-family:&#39;Menlo&#39;,monospace;font-size:9.0pt;&quot;&gt;&lt;span style=&quot;color:#c792ea;font-style:italic;&quot;&gt;import &lt;/span&gt;&lt;span style=&quot;color:#ffcb6b;font-style:italic;&quot;&gt;Summary &lt;/span&gt;&lt;span style=&quot;color:#c792ea;font-style:italic;&quot;&gt;from &lt;/span&gt;&lt;span style=&quot;color:#c3e88d;&quot;&gt;&#39;./components/Summary&#39;&lt;/span&gt;&lt;span style=&quot;color:#89ddff;&quot;&gt;;&lt;br&gt;&lt;/span&gt;&lt;span style=&quot;color:#c792ea;font-style:italic;&quot;&gt;import &lt;/span&gt;&lt;span style=&quot;color:#ffcb6b;font-style:italic;&quot;&gt;Content &lt;/span&gt;&lt;span style=&quot;color:#c792ea;font-style:italic;&quot;&gt;from &lt;/span&gt;&lt;span style=&quot;color:#c3e88d;&quot;&gt;&#39;./components/Content&#39;&lt;/span&gt;&lt;span style=&quot;color:#89ddff;&quot;&gt;;&lt;br&gt;&lt;/span&gt;&lt;span style=&quot;color:#c792ea;font-style:italic;&quot;&gt;import &lt;/span&gt;&lt;span style=&quot;color:#ffcb6b;font-style:italic;&quot;&gt;CompetitionFormat &lt;/span&gt;&lt;span style=&quot;color:#c792ea;font-style:italic;&quot;&gt;from &lt;/span&gt;&lt;span style=&quot;color:#c3e88d;&quot;&gt;&#39;./components/CompetitionFormat&#39;&lt;/span&gt;&lt;span style=&quot;color:#89ddff;&quot;&gt;;&lt;br&gt;&lt;/span&gt;&lt;span style=&quot;color:#c792ea;font-style:italic;&quot;&gt;import &lt;/span&gt;&lt;span style=&quot;color:#ffcb6b;font-style:italic;&quot;&gt;GameSettings &lt;/span&gt;&lt;span style=&quot;color:#c792ea;font-style:italic;&quot;&gt;from &lt;/span&gt;&lt;span style=&quot;color:#c3e88d;&quot;&gt;&#39;./components/GameSettings&#39;&lt;/span&gt;&lt;span style=&quot;color:#89ddff;&quot;&gt;;&lt;br&gt;&lt;/span&gt;&lt;span style=&quot;color:#c792ea;font-style:italic;&quot;&gt;import &lt;/span&gt;&lt;span style=&quot;color:#ffcb6b;font-style:italic;&quot;&gt;Prizes &lt;/span&gt;&lt;span style=&quot;color:#c792ea;font-style:italic;&quot;&gt;from &lt;/span&gt;&lt;span style=&quot;color:#c3e88d;&quot;&gt;&#39;./components/Prizes&#39;&lt;/span&gt;&lt;span style=&quot;color:#89ddff;&quot;&gt;;&lt;br&gt;&lt;/span&gt;&lt;span style=&quot;color:#c792ea;font-style:italic;&quot;&gt;import &lt;/span&gt;JoinRequirements &lt;span style=&quot;color:#c792ea;font-style:italic;&quot;&gt;from &lt;/span&gt;&lt;span style=&quot;color:#c3e88d;&quot;&gt;&#39;./components/JoinRequirements&#39;&lt;/span&gt;&lt;span style=&quot;color:#89ddff;&quot;&gt;;&lt;/span&gt;&lt;/pre&gt;" style="rounded=1;whiteSpace=wrap;html=1;align=left;" parent="1" vertex="1">
          <mxGeometry x="266.87" y="510" width="461.25" height="160" as="geometry" />
        </mxCell>
      </root>
    </mxGraphModel>
  </diagram>
</mxfile>
